<svg width="24" height="22" viewBox="0 0 24 22" fill="none" xmlns="http://www.w3.org/2000/svg">
<path d="M24 12C24 13.332 22.932 14.4 21.6 14.4H2.4C1.76348 14.4 1.15303 14.1471 0.702944 13.697C0.252856 13.2469 0 12.6365 0 12C0 11.3635 0.252856 10.753 0.702944 10.3029C1.15303 9.85283 1.76348 9.59997 2.4 9.59997H13.2L16.2 12L19.2 9.59997H21.6C22.2365 9.59997 22.847 9.85283 23.2971 10.3029C23.7471 10.753 24 11.3635 24 12ZM12 -3.05176e-05C1.2 -3.05176e-05 1.2 7.19997 1.2 7.19997H22.8C22.8 7.19997 22.8 -3.05176e-05 12 -3.05176e-05ZM1.2 18C1.2 19.992 2.808 21.6 4.8 21.6H19.2C21.192 21.6 22.8 19.992 22.8 18V16.8H1.2V18Z" fill="black"/>
</svg>
