<svg width="24" height="24" viewBox="0 0 24 24" fill="none" xmlns="http://www.w3.org/2000/svg">
<path d="M12 16.8C13.273 16.8 14.4939 16.2943 15.3941 15.3941C16.2943 14.4939 16.8 13.273 16.8 12C16.8 10.727 16.2943 9.50607 15.3941 8.6059C14.4939 7.70572 13.273 7.20001 12 7.20001V16.8Z" fill="black"/>
<path fill-rule="evenodd" clip-rule="evenodd" d="M12 0C5.3724 0 0 5.3724 0 12C0 18.6276 5.3724 24 12 24C18.6276 24 24 18.6276 24 12C24 5.3724 18.6276 0 12 0ZM12 2.4V7.2C10.727 7.2 9.50606 7.70572 8.60589 8.60589C7.70571 9.50607 7.2 10.727 7.2 12C7.2 13.273 7.70571 14.4939 8.60589 15.3941C9.50606 16.2943 10.727 16.8 12 16.8V21.6C14.5461 21.6 16.9879 20.5886 18.7882 18.7882C20.5886 16.9879 21.6 14.5461 21.6 12C21.6 9.45392 20.5886 7.01213 18.7882 5.21178C16.9879 3.41143 14.5461 2.4 12 2.4V2.4Z" fill="black"/>
</svg>
