<svg width="24" height="17" viewBox="0 0 24 17" fill="none" xmlns="http://www.w3.org/2000/svg">
<path d="M23.4975 2.51162C23.3616 2.02692 23.0969 1.58809 22.7316 1.24179C22.3559 0.884844 21.8955 0.62951 21.3937 0.499892C19.516 0.00495811 11.993 0.00495822 11.993 0.00495822C8.85676 -0.0307243 5.72128 0.126216 2.60427 0.474895C2.10252 0.614089 1.64296 0.875128 1.26645 1.23479C0.896497 1.59075 0.628533 2.02969 0.488551 2.51062C0.15229 4.32212 -0.0110893 6.16148 0.0006171 8.00388C-0.0113813 9.84464 0.151597 11.6834 0.488551 13.4971C0.625533 13.9761 0.892497 14.413 1.26345 14.766C1.6344 15.1189 2.09634 15.3739 2.60427 15.5089C4.50701 16.0028 11.993 16.0028 11.993 16.0028C15.1332 16.0385 18.2727 15.8816 21.3937 15.5329C21.8955 15.4033 22.3559 15.1479 22.7316 14.791C23.1015 14.438 23.3645 13.9991 23.4965 13.5211C23.8415 11.7103 24.0093 9.87022 23.9974 8.02688C24.0233 6.17573 23.8558 4.32694 23.4975 2.51062V2.51162ZM9.60133 11.4274V4.58134L15.8605 8.00488L9.60133 11.4274Z" fill="black"/>
</svg>
